<?xml version="1.0" encoding="UTF-8" standalone="no"?>
<!-- Created with Inkscape (http://www.inkscape.org/) -->

<svg
   xmlns:osb="http://www.openswatchbook.org/uri/2009/osb"
   xmlns:dc="http://purl.org/dc/elements/1.1/"
   xmlns:cc="http://creativecommons.org/ns#"
   xmlns:rdf="http://www.w3.org/1999/02/22-rdf-syntax-ns#"
   xmlns:svg="http://www.w3.org/2000/svg"
   xmlns="http://www.w3.org/2000/svg"
   xmlns:sodipodi="http://sodipodi.sourceforge.net/DTD/sodipodi-0.dtd"
   xmlns:inkscape="http://www.inkscape.org/namespaces/inkscape"
   id="svg2"
   height="100%"
   viewBox="0 0 512 512"
   width="100%"
   version="1.1"
   inkscape:version="0.48.4 r9939"
   sodipodi:docname="converseen.svg">
  <defs
     id="defs39">
    <linearGradient
       id="linearGradient4915"
       osb:paint="solid">
      <stop
         style="stop-color:#000000;stop-opacity:1;"
         offset="0"
         id="stop4917" />
    </linearGradient>
  </defs>
  <sodipodi:namedview
     pagecolor="#ffffff"
     bordercolor="#666666"
     borderopacity="1"
     objecttolerance="10"
     gridtolerance="10"
     guidetolerance="10"
     inkscape:pageopacity="0"
     inkscape:pageshadow="2"
     inkscape:window-width="1360"
     inkscape:window-height="689"
     id="namedview37"
     showgrid="false"
     inkscape:zoom="0.921875"
     inkscape:cx="-21.694915"
     inkscape:cy="256"
     inkscape:window-x="0"
     inkscape:window-y="25"
     inkscape:window-maximized="1"
     inkscape:current-layer="svg2" />
  <metadata
     id="metadata74">
    <rdf:RDF>
      <cc:Work
         rdf:about="">
        <dc:format>image/svg+xml</dc:format>
        <dc:type
           rdf:resource="http://purl.org/dc/dcmitype/StillImage" />
      </cc:Work>
    </rdf:RDF>
  </metadata>
  <path
     style="fill:#2d83be;fill-rule:evenodd"
     inkscape:connector-curvature="0"
     d="m 471.95,253.05 c 0,120.9 -98.01,218.91 -218.91,218.91 -120.9,0 -218.91,-98.01 -218.91,-218.91 0,-120.9 98.01,-218.91 218.91,-218.91 120.9,0 218.91,98.01 218.91,218.91"
     id="path6" />
  <path
     style="fill-opacity:0.06700003;fill-rule:evenodd"
     inkscape:connector-curvature="0"
     d="M 256,1 C 115.17,1 1,115.17 1,256 1,396.83 115.17,511 256,511 396.83,511 511,396.83 511,256 511,115.17 396.83,1 256,1 m 8.827,44.931 c 120.9,0 218.9,98 218.9,218.9 0,120.9 -98,218.9 -218.9,218.9 -120.9,0 -218.93,-98 -218.93,-218.9 0,-120.9 98.03,-218.9 218.93,-218.9"
     id="path8" />
  <g
     style="fill-opacity:0.12900002;fill-rule:evenodd"
     id="g10">
    <path
       inkscape:connector-curvature="0"
       d="M 256,4.43 C 117.06,4.43 4.43,117.06 4.43,256 4.43,394.94 117.06,507.57 256,507.57 394.94,507.57 507.57,394.94 507.57,256 507.57,117.06 394.94,4.43 256,4.43 m 5.885,38.556 c 120.9,0 218.9,98 218.9,218.9 0,120.9 -98,218.9 -218.9,218.9 -120.9,0 -218.93,-98 -218.93,-218.9 0,-120.9 98.03,-218.9 218.93,-218.9"
       id="path12" />
    <path
       inkscape:connector-curvature="0"
       d="M 256,8.36 C 119.23,8.36 8.36,119.23 8.36,256 8.36,392.77 119.23,503.64 256,503.64 392.77,503.64 503.64,392.77 503.64,256 503.64,119.23 392.77,8.36 256,8.36 m 2.942,31.691 c 120.9,0 218.9,98 218.9,218.9 0,120.9 -98,218.9 -218.9,218.9 -120.9,0 -218.93,-98 -218.93,-218.9 0,-120.9 98.03,-218.9 218.93,-218.9"
       id="path14" />
  </g>
  <path
     style="fill:#ffffff;fill-rule:evenodd;stroke:#000000;stroke-width:4.90399981;stroke-opacity:0.31000001"
     inkscape:connector-curvature="0"
     d="M 253.04,7.86 C 117.62,7.86 7.85,117.64 7.85,253.05 c 0,135.42 109.78,245.19 245.19,245.19 135.42,0 245.19,-109.78 245.19,-245.19 C 498.23,117.63 388.45,7.86 253.04,7.86 z m 0,26.297 c 120.9,0 218.9,98 218.9,218.9 0,120.9 -98,218.9 -218.9,218.9 -120.9,0 -218.93,-98 -218.93,-218.9 0,-120.9 98.03,-218.9 218.93,-218.9 z"
     id="path16" />
  <text
     id="text18"
     style="word-spacing:0;letter-spacing:0"
     font-size="129.23px"
     line-height="125%"
     y="231.36"
     x="729.64001"
     font-family="Gentium Book Basic">
    <tspan
       id="tspan20"
       y="231.36"
       x="729.64001" />
  </text>
  <text
     id="text22"
     style="text-anchor:middle"
     font-size="46.954px"
     transform="scale(4.0128 .2492)"
     y="579.26001"
     x="378.91"
     font-family="Arial" />
  <text
     id="text24"
     style="word-spacing:0;letter-spacing:0"
     font-size="129.23px"
     line-height="125%"
     y="151.36"
     x="1310.91"
     font-family="Gentium Book Basic">
    <tspan
       id="tspan26"
       y="151.36"
       x="1310.91" />
  </text>
  <text
     id="text28"
     style="text-anchor:middle"
     font-size="46.954px"
     transform="scale(4.0128 .2492)"
     y="258.22"
     x="523.76001"
     font-family="Arial" />
  <text
     id="text30"
     style="word-spacing:0;letter-spacing:0"
     font-size="129.23px"
     line-height="125%"
     y="-29.9"
     x="239.33"
     font-family="Gentium Book Basic">
    <tspan
       id="tspan32"
       y="-29.9"
       x="239.33" />
  </text>
  <text
     id="text34"
     style="text-anchor:middle"
     font-size="46.954px"
     transform="scale(4.0128 .2492)"
     y="-469.13"
     x="256.72"
     font-family="Arial" />
  <text
     id="text36"
     style="word-spacing:0;letter-spacing:0"
     font-size="129.23px"
     line-height="125%"
     y="-246.37"
     x="1337.38"
     font-family="Gentium Book Basic">
    <tspan
       id="tspan38"
       y="-246.37"
       x="1337.38" />
  </text>
  <text
     id="text40"
     style="text-anchor:middle"
     font-size="46.954px"
     transform="scale(4.0128 .2492)"
     y="-1337.8"
     x="530.35999"
     font-family="Arial" />
  <text
     id="text42"
     style="word-spacing:0;letter-spacing:0"
     font-size="129.23px"
     line-height="125%"
     y="-326.37"
     x="1918.65"
     font-family="Gentium Book Basic">
    <tspan
       id="tspan44"
       y="-326.37"
       x="1918.65" />
  </text>
  <text
     id="text46"
     style="text-anchor:middle"
     font-size="46.954px"
     transform="scale(4.0128 .2492)"
     y="-1658.83"
     x="675.21002"
     font-family="Arial" />
  <text
     id="text48"
     style="word-spacing:0;letter-spacing:0"
     font-size="129.23px"
     line-height="125%"
     y="-798.77002"
     x="1529.53"
     font-family="Gentium Book Basic">
    <tspan
       id="tspan50"
       y="-798.77002"
       x="1529.53" />
  </text>
  <text
     id="text52"
     style="text-anchor:middle"
     font-size="46.954px"
     transform="scale(4.0128 .2492)"
     y="-3554.48"
     x="578.23999"
     font-family="Arial" />
  <text
     id="text54"
     style="word-spacing:0;letter-spacing:0"
     font-size="129.23px"
     line-height="125%"
     y="-878.78003"
     x="2110.79"
     font-family="Gentium Book Basic">
    <tspan
       id="tspan56"
       y="-878.78003"
       x="2110.79" />
  </text>
  <text
     id="text58"
     style="text-anchor:middle"
     font-size="46.954px"
     transform="scale(4.0128 .2492)"
     y="-3875.52"
     x="723.09003"
     font-family="Arial" />
  <text
     id="text60"
     style="word-spacing:0;letter-spacing:0"
     font-size="208.33px"
     line-height="125%"
     y="535.94"
     x="277.98999"
     font-family="Gentium Book Basic">
    <tspan
       id="tspan62"
       y="535.94"
       x="277.98999" />
  </text>
  <path
     style="opacity:0.25;color:#000000"
     inkscape:connector-curvature="0"
     d="M 293.41,64.75322 254.49608,160.36017 262.071,189.63 C 251.717,186.262 216.74658,66.946457 205.26858,66.946457 c -58.667,0 -82.25558,164.896543 -82.25558,223.562543 0,12.474 2.111,24.16 6.06,35.28 l 108.02542,20.48651 10.52543,127.67796 c 14.356,2.962 -9.81085,-1.97747 5.41915,-1.97747 120.9,0 218.91,-98.01 218.91,-218.91 0,-15.258 -1.56,-30.15 -4.531,-44.531 L 422.453,163.566 369.3552,92.952609"
     id="path66"
     sodipodi:nodetypes="cccsscccssccc" />
  <g
     style="font-size:40px;font-style:normal;font-weight:normal;fill:#ffffff;fill-opacity:1;stroke:none;font-family:Bitstream Vera Sans"
     id="flowRoot3714-6-5-9-0-8-45-8"
     transform="matrix(15.144397,0,0,13.61693,9476.9172,-9282.1665)">
    <path
       style="fill:#ffffff;fill-opacity:1;stroke:none"
       id="path3414"
       d="m -606.05859,689.40512 c -0.84637,2e-5 -1.26955,0.94403 -1.26953,2.83203 l 0,13.39844 c 1.23696,0 2.47394,-0.67708 3.71093,-2.03125 1.10675,-1.21093 1.66014,-3.26822 1.66016,-6.17187 -2e-5,-2.70832 -0.55992,-4.79165 -1.67969,-6.25 -0.91147,-1.18488 -1.71877,-1.77733 -2.42187,-1.77735 m 0,-3.0664 c 1.82289,2e-5 3.56117,0.85939 5.21484,2.57812 1.78383,1.83596 2.67576,4.6745 2.67578,8.51563 -2e-5,3.52865 -0.89195,6.34115 -2.67578,8.4375 -1.67971,1.97916 -3.84116,2.96875 -6.48437,2.96875 l 0,7.85156 -3.57422,0 0,-7.83203 c -2.59116,0 -4.75912,-0.9961 -6.50391,-2.98828 -1.77084,-2.03125 -2.65625,-4.83724 -2.65625,-8.41797 0,-3.72395 0.88541,-6.53644 2.65625,-8.4375 1.32812,-1.41925 3.07291,-2.31118 5.23438,-2.67578 l 0,3.18359 c -0.85939,0.2995 -1.66668,0.95705 -2.42188,1.97266 -1.1198,1.49741 -1.67969,3.48308 -1.67969,5.95703 0,2.63021 0.55989,4.69401 1.67969,6.1914 1.0026,1.34115 2.23306,2.01173 3.69141,2.01172 l 0,-13.41797 c -2e-5,-3.93227 1.61457,-5.89841 4.84375,-5.89843"
       inkscape:connector-curvature="0" />
  </g>
</svg>
